<?xml version="1.0" encoding="UTF-8" standalone="no"?>
<svg
   width="59.525074"
   height="64"
   version="1.1"
   id="svg1"
   sodipodi:docname="Player.svg"
   inkscape:version="1.3 (0e150ed6c4, 2023-07-21)"
   xmlns:inkscape="http://www.inkscape.org/namespaces/inkscape"
   xmlns:sodipodi="http://sodipodi.sourceforge.net/DTD/sodipodi-0.dtd"
   xmlns="http://www.w3.org/2000/svg"
   xmlns:svg="http://www.w3.org/2000/svg">
  <defs
     id="defs1" />
  <sodipodi:namedview
     id="namedview1"
     pagecolor="#505050"
     bordercolor="#eeeeee"
     borderopacity="1"
     inkscape:showpageshadow="0"
     inkscape:pageopacity="0"
     inkscape:pagecheckerboard="0"
     inkscape:deskcolor="#505050"
     inkscape:zoom="2.2456165"
     inkscape:cx="-120.01159"
     inkscape:cy="76.371011"
     inkscape:window-width="1920"
     inkscape:window-height="1009"
     inkscape:window-x="1912"
     inkscape:window-y="-8"
     inkscape:window-maximized="1"
     inkscape:current-layer="svg1" />
  <path
     fill="#8da5f3"
     d="M 22.857624,0 A 4.5714109,4.5714109 0 0 0 18.286213,4.5714109 V 18.285644 a 4.5714109,4.5714109 0 0 0 4.571411,4.57141 h 4.571411 v 4.525697 a 4.5714109,4.5714109 0 0 0 -1.444566,0.283428 L 16.608505,30.793024 13.48166,21.41706 a 4.5717337,4.5717337 0 0 0 -8.6765379,2.88456 l 4.5714105,13.714233 a 4.5714109,4.5714109 0 0 0 5.7828354,2.893703 l 7.698256,-2.55999 v 2.788561 c 0,0.187427 0.08686,0.347427 0.109714,0.530283 L 2.0348471,55.620356 a 4.5719801,4.5719801 0 1 0 5.0742661,7.606828 L 30.222167,47.821529 37.056426,61.471762 a 4.5714109,4.5714109 0 0 0 5.531407,2.294849 L 56.302066,59.1952 a 4.5714109,4.5714109 0 1 0 -2.889132,-8.671967 l -9.956532,3.314273 -4.457126,-8.918823 a 4.4845541,4.4845541 0 0 0 2.143992,-3.780556 v -4.56684 h 6.322261 l 3.300559,6.619403 a 4.5743385,4.5743385 0 1 0 8.182825,-4.091413 L 54.377502,29.956456 A 4.5714109,4.5714109 0 0 0 50.286089,27.428465 H 36.571857 v -4.571411 h 4.571411 a 4.5714109,4.5714109 0 0 0 4.571411,-4.57141 V 4.5714109 A 4.5714109,4.5714109 0 0 0 41.143268,0 Z m 0,9.142822 h 4.571411 v 9.142822 h -4.571411 z"
     id="path1"
     style="stroke-width:4.57141" />
</svg>
